HIERARCHY
ROOT RootJoint
{
    OFFSET   0.000000   0.000000   0.000000
    CHANNELS 6 Xposition Yposition Zposition Xrotation Yrotation Zrotation
    JOINT pelvis_lowerback
    {
        OFFSET   0.000000   0.093605   0.000000
        CHANNELS 3 Xrotation Yrotation Zrotation
        JOINT lowerback_torso
        {
            OFFSET   0.000000   0.100000   0.000000
            CHANNELS 3 Xrotation Yrotation Zrotation
            JOINT torso_head
            {
                OFFSET   0.000000   0.282350   0.000000
                CHANNELS 3 Xrotation Yrotation Zrotation
                End Site
                {
                    OFFSET   0.000000   0.192650   0.000000
                }
            }
            JOINT rTorso_Clavicle
            {
                OFFSET  -0.001000   0.157500   0.000000
                CHANNELS 3 Xrotation Yrotation Zrotation
                JOINT rShoulder
                {
                    OFFSET  -0.117647   0.000000   0.000000
                    CHANNELS 3 Xrotation Yrotation Zrotation
                    JOINT rElbow
                    {
                        OFFSET  -0.245000   0.000000   0.000000
                        CHANNELS 3 Xrotation Yrotation Zrotation
                        JOINT rWrist
                        {
                            OFFSET  -0.240000   0.000000   0.000000
                            CHANNELS 3 Xrotation Yrotation Zrotation
                            End Site
                            {
                                OFFSET  -0.116353  -0.002500   0.000000
                            }
                        }
                    }
                }
            }
            JOINT lTorso_Clavicle
            {
                OFFSET   0.001000   0.157500   0.000000
                CHANNELS 3 Xrotation Yrotation Zrotation
                JOINT lShoulder
                {
                    OFFSET   0.117647   0.000000   0.000000
                    CHANNELS 3 Xrotation Yrotation Zrotation
                    JOINT lElbow
                    {
                        OFFSET   0.245000   0.000000   0.000000
                        CHANNELS 3 Xrotation Yrotation Zrotation
                        JOINT lWrist
                        {
                            OFFSET   0.240000   0.000000   0.000000
                            CHANNELS 3 Xrotation Yrotation Zrotation
                            End Site
                            {
                                OFFSET   0.116353  -0.002500   0.000000
                            }
                        }
                    }
                }
            }
        }
    }
    JOINT rHip
    {
        OFFSET  -0.100000  -0.051395   0.000000
        CHANNELS 3 Xrotation Yrotation Zrotation
        JOINT rKnee
        {
            OFFSET   0.000000  -0.410000   0.000000
            CHANNELS 3 Xrotation Yrotation Zrotation
            JOINT rAnkle
            {
                OFFSET   0.000000  -0.390000   0.000000
                CHANNELS 3 Xrotation Yrotation Zrotation
                JOINT rToeJoint
                {
                    OFFSET   0.000000  -0.050000   0.130000
                    CHANNELS 3 Xrotation Yrotation Zrotation
                    End Site
                    {
                        OFFSET  -0.010000   0.002000   0.060000
                    }
                }
            }
        }
    }
    JOINT lHip
    {
        OFFSET   0.100000  -0.051395   0.000000
        CHANNELS 3 Xrotation Yrotation Zrotation
        JOINT lKnee
        {
            OFFSET   0.000000  -0.410000   0.000000
            CHANNELS 3 Xrotation Yrotation Zrotation
            JOINT lAnkle
            {
                OFFSET   0.000000  -0.390000   0.000000
                CHANNELS 3 Xrotation Yrotation Zrotation
                JOINT lToeJoint
                {
                    OFFSET   0.000000  -0.050000   0.130000
                    CHANNELS 3 Xrotation Yrotation Zrotation
                    End Site
                    {
                        OFFSET   0.010000   0.002000   0.060000
                    }
                }
            }
        }
    }
}
MOTION
Frames: 12
Frame Time:   0.008333
 -0.912696   0.784757   3.235847 -169.217740   4.459085 172.237447  10.956837   5.825205   6.858467  -5.653410   4.390918  13.466238  -1.019440   2.545100  -0.435704  -5.605255   6.119434  -6.099577 -12.854598  21.915633  23.598392   0.010125  67.297563  -0.007163  -2.924873   3.718739   2.816125  -7.022901   4.511586  29.542705 -18.610935   1.471456   2.655773   0.003835 -21.814075   0.003279  -3.138192  -4.298994  -0.921692 -30.920343  -5.014796 -26.498575  41.460260  -0.020449  -0.053608  -6.525210 -10.529454  10.206896  -5.126481  -0.001334   0.011344 -19.408122  13.777867  -1.042662  65.175497   0.000760   0.000397 -37.695340   4.421128  15.204157  -0.686725  -0.000156   0.000019
 -0.913410   0.785222   3.233179 -169.032007   3.927593 172.197773  10.899530   5.770324   6.982062  -5.585658   4.451305  13.469277  -0.939522   2.453073  -0.404265  -5.595622   6.159409  -6.088942 -12.528832  22.114643  23.765300   0.009071  67.373139  -0.006477  -3.007631   3.792216   2.855713  -7.033101   4.607665  29.321873 -18.924561   1.562172   2.421904   0.003812 -22.275912   0.002521  -3.247182  -4.337508  -0.726931 -30.360259  -4.933016 -26.353392  39.849263  -0.016885  -0.053168  -6.632460 -10.542996  10.020036  -4.893375  -0.001301   0.011045 -18.867227  13.519545  -1.123128  65.039547   0.000422   0.000073 -37.762597   4.169686  15.006939  -0.733340  -0.000202   0.000015
 -0.914153   0.785915   3.230545 -168.867962   3.411271 172.162618  10.823786   5.712750   7.101902  -5.522555   4.506328  13.475917  -0.865154   2.366118  -0.369480  -5.569935   6.202322  -6.066675 -12.214230  22.307480  23.935064   0.008138  67.442440  -0.005851  -3.086585   3.846425   2.947312  -7.041789   4.696043  29.099981 -19.216569   1.651111   2.191933   0.003735 -22.706420   0.001914  -3.355001  -4.378940  -0.545286 -29.819792  -4.868815 -26.165007  38.376181  -0.013230  -0.051946  -6.732366 -10.555316   9.845602  -4.684182  -0.001322   0.010538 -18.324882  13.257687  -1.207477  64.840542   0.000085  -0.000282 -37.795334   3.932440  14.820736  -0.777075  -0.000230   0.000012
 -0.914934   0.786756   3.227982 -168.732511   2.910711 172.135397  10.737736   5.656438   7.213714  -5.471659   4.557692  13.480501  -0.798230   2.284872  -0.335750  -5.539697   6.244111  -6.040809 -11.916979  22.490271  24.098210   0.007311  67.507433  -0.005287  -3.162850   3.895205   3.061369  -7.049383   4.779405  28.887897 -19.488100   1.737283   1.973526   0.003580 -23.107077   0.001464  -3.458685  -4.413551  -0.380935 -29.312686  -4.819057 -25.948866  37.019018  -0.009756  -0.050105  -6.825247 -10.566252   9.683294  -4.493569  -0.001370   0.009918 -17.799966  13.001289  -1.295024  64.597862  -0.000232  -0.000628 -37.800035   3.701758  14.645155  -0.818575  -0.000246   0.000009
 -0.915718   0.787600   3.225408 -168.612211   2.429975 172.099588  10.643712   5.604052   7.323771  -5.428190   4.606978  13.485465  -0.735839   2.209137  -0.303252  -5.509980   6.284373  -6.019866 -11.638739  22.663565  24.250220   0.006563  67.568923  -0.004780  -3.236661   3.942776   3.183009  -7.056030   4.857343  28.697711 -19.741233   1.817962   1.773394   0.003331 -23.480103   0.001114  -3.557962  -4.440418  -0.226677 -28.828277  -4.786888 -25.702575  35.770564  -0.006649  -0.047710  -6.912000 -10.575834   9.532313  -4.321937  -0.001412   0.009207 -17.305795  12.764729  -1.356868  64.325326  -0.000531  -0.000971 -37.545873   3.496387  14.516963  -2.155135  -0.001472   0.000260
 -0.916514   0.788534   3.222936 -168.525322   1.958155 172.080675  10.546659   5.550501   7.413151  -5.399244   4.651376  13.485389  -0.680129   2.138380  -0.273848  -5.482432   6.321698  -5.997478 -11.379599  22.826234  24.392068   0.005900  67.626845  -0.004327  -3.307186   3.991344   3.297039  -7.063695   4.932207  28.517762 -19.977739   1.895841   1.587732   0.003074 -23.828271   0.000886  -3.653237  -4.466547  -0.071198 -28.379931  -4.759041 -25.451571  34.609624  -0.003962  -0.045162  -6.992519 -10.584630   9.391670  -4.162999  -0.001453   0.008504 -16.822529  12.530424  -1.450617  64.050133  -0.000781  -0.001207 -37.606018   3.252713  14.511045  -1.897841  -0.001133   0.000215
 -0.917308   0.789527   3.220568 -168.463543   1.498507 172.069823  10.450749   5.500142   7.490460  -5.377342   4.693628  13.479316  -0.628891   2.072364  -0.246834  -5.458079   6.357127  -5.979080 -11.138818  22.979230  24.522521   0.005312  67.681206  -0.003929  -3.374930   4.039315   3.401949  -7.071623   5.003726  28.350557 -20.198415   1.970816   1.415658   0.002820 -24.152367   0.000761  -3.744639  -4.487534   0.080785 -27.961203  -4.736516 -25.191328  33.531622  -0.001684  -0.042496  -7.067640 -10.592536   9.260665  -4.017759  -0.001480   0.007805 -16.368066  12.298124  -1.546888  63.755222  -0.000992  -0.001413 -37.636228   3.018991  14.507559  -1.692026  -0.000878   0.000177
 -0.918048   0.790957   3.218112 -168.336147   1.047210 172.042294  10.371279   5.440224   7.572778  -5.288241   4.737588  13.497308  -0.566441   2.072819  -0.182547  -5.404200   6.367706  -5.959447 -10.828479  23.215586  24.652874   0.005514  67.773303  -0.004171  -3.354018   4.060409   3.384582  -7.098297   5.065410  28.160775 -20.341132   2.040668   1.236413   0.002700 -24.439554   0.000802  -3.779301  -4.527679   0.281993 -27.523440  -4.750214 -24.860664  32.892648  -0.000027  -0.037617  -7.153141 -10.567622   9.120670  -3.785824  -0.001690   0.007702 -15.790755  12.015212  -1.646691  63.347164  -0.001132  -0.001609 -37.610664   2.847413  14.493315  -1.527386  -0.000684   0.000144
 -0.918772   0.792690   3.215694 -168.236990   0.610876 172.010442  10.271605   5.381412   7.654963  -5.204417   4.780236  13.519797  -0.507288   2.075401  -0.116192  -5.335186   6.379943  -5.927160 -10.527458  23.445933  24.790124   0.005700  67.866257  -0.004371  -3.333108   4.107633   3.432567  -7.120022   5.121960  27.971310 -20.471638   2.107785   1.058409   0.002587 -24.706275   0.000834  -3.810068  -4.560129   0.454917 -27.092190  -4.791052 -24.475318  32.386014   0.001216  -0.032959  -7.228659 -10.543529   8.991223  -3.570450  -0.001867   0.007446 -15.215551  11.723478  -1.738374  62.860311  -0.001245  -0.001832 -37.531456   2.691347  14.473761  -1.395681  -0.000536   0.000117
 -0.919497   0.794611   3.213359 -168.178652   0.189793 171.983782  10.159063   5.325198   7.728783  -5.136027   4.822037  13.537934  -0.454665   2.077952  -0.053225  -5.264336   6.394620  -5.892413 -10.243237  23.665601  24.923570   0.005773  67.955006  -0.004471  -3.314464   4.164453   3.509299  -7.139852   5.175591  27.793123 -20.592609   2.172166   0.890168   0.002452 -24.953914   0.000870  -3.839787  -4.583473   0.609806 -26.673618  -4.846476 -24.059441  31.943679   0.002145  -0.028870  -7.297794 -10.520394   8.871126  -3.372216  -0.001999   0.007103 -14.668950  11.436909  -1.827672  62.319550  -0.001350  -0.002071 -37.408658   2.539075  14.452792  -1.290320  -0.000421   0.000094
 -0.920234   0.796633   3.211122 -168.159428  -0.216024 171.964890  10.040621   5.272814   7.792375  -5.081256   4.863739  13.548708  -0.407235   2.080399   0.005255  -5.197944   6.411496  -5.862314  -9.978411  23.874167  25.047614   0.005742  68.039069  -0.004490  -3.297340   4.225157   3.591505  -7.158914   5.227127  27.630110 -20.705421   2.233575   0.734931   0.002295 -25.183944   0.000916  -3.868521  -4.598896   0.756800 -26.269651  -4.910057 -23.628807  31.546183   0.002811  -0.025331  -7.361731 -10.498253   8.759539  -3.190192  -0.002077   0.006703 -14.158704  11.159325  -1.917087  61.745185  -0.001446  -0.002301 -37.255218   2.388068  14.423317  -1.188743  -0.000323   0.000076
 -0.920989   0.798698   3.208986 -168.175099  -0.605970 171.953560   9.920955   5.225149   7.846200  -5.037055   4.905781  13.551966  -0.363596   2.082761   0.059207  -5.138676   6.430318  -5.839804  -9.733437  24.071868  25.160152   0.005631  68.118618  -0.004447  -3.281316   4.288602   3.668479  -7.177499   5.276677  27.482961 -20.810927   2.291701   0.593312   0.002124 -25.397848   0.000970  -3.896217  -4.608428   0.900826 -25.880573  -4.978325 -23.193689  31.185471   0.003255  -0.022265  -7.421043 -10.477144   8.655774  -3.023133  -0.002103   0.006270 -13.687080  10.892575  -2.007423  61.152340  -0.001528  -0.002503 -37.081404   2.238151  14.382873  -1.079344  -0.000233   0.000062
